HIERARCHY
ROOT Hips
{
	OFFSET 0.000000 0.000000 0.000000
	CHANNELS 6 Xposition Yposition Zposition Xrotation Yrotation Zrotation
	JOINT Spine
	{
		OFFSET 0.000000 0.042231 0.063346
		CHANNELS 3 Xrotation Yrotation Zrotation
		JOINT Spine1
		{
			OFFSET 0.000000 0.014667 0.083179
			CHANNELS 3 Xrotation Yrotation Zrotation
			JOINT Spine2
			{
				OFFSET 0.000000 0.007361 0.084141
				CHANNELS 3 Xrotation Yrotation Zrotation
				JOINT Spine3
				{
					OFFSET 0.000000 0.000000 0.084462
					CHANNELS 3 Xrotation Yrotation Zrotation
					JOINT Neck
					{
						OFFSET 0.000000 -0.031673 0.221713
						CHANNELS 3 Xrotation Yrotation Zrotation
						JOINT Head
						{
							OFFSET 0.000000 -0.020167 0.114371
							CHANNELS 3 Xrotation Yrotation Zrotation
							End Site
							{
								OFFSET 0.000000 0.000000 0.000000
							}
						}
					}
					JOINT RightShoulder
					{
						OFFSET -0.029161 -0.048602 0.157471
						CHANNELS 3 Xrotation Yrotation Zrotation
						JOINT RightArm
						{
							OFFSET -0.144834 0.000000 0.000000
							CHANNELS 3 Xrotation Yrotation Zrotation
							JOINT RightForeArm
							{
								OFFSET -0.274949 0.000000 0.000000
								CHANNELS 3 Xrotation Yrotation Zrotation
								JOINT RightHand
								{
									OFFSET -0.254725 0.000000 0.000000
									CHANNELS 3 Xrotation Yrotation Zrotation
									JOINT RightHandEnd
									{
										OFFSET -0.068160 0.000000 0.000000
										CHANNELS 3 Xrotation Yrotation Zrotation
										End Site
										{
											OFFSET 0.000000 0.000000 0.000000
										}
									}
									JOINT RightHandThumb1
									{
										OFFSET -0.027264 -0.045440 -0.018176
										CHANNELS 3 Xrotation Yrotation Zrotation
										End Site
										{
											OFFSET 0.000000 0.000000 0.000000
										}
									}
								}
							}
						}
					}
					JOINT LeftShoulder
					{
						OFFSET 0.029161 -0.048602 0.157471
						CHANNELS 3 Xrotation Yrotation Zrotation
						JOINT LeftArm
						{
							OFFSET 0.144834 0.000000 0.000000
							CHANNELS 3 Xrotation Yrotation Zrotation
							JOINT LeftForeArm
							{
								OFFSET 0.274949 0.000000 0.000000
								CHANNELS 3 Xrotation Yrotation Zrotation
								JOINT LeftHand
								{
									OFFSET 0.254725 0.000000 0.000000
									CHANNELS 3 Xrotation Yrotation Zrotation
									JOINT LeftHandEnd
									{
										OFFSET 0.068160 0.000000 0.000000
										CHANNELS 3 Xrotation Yrotation Zrotation
										End Site
										{
											OFFSET 0.000000 0.000000 0.000000
										}
									}
									JOINT LeftHandThumb1
									{
										OFFSET 0.027264 -0.045440 -0.018176
										CHANNELS 3 Xrotation Yrotation Zrotation
										End Site
										{
											OFFSET 0.000000 0.000000 0.000000
										}
									}
								}
							}
						}
					}
				}
			}
		}
	}
	JOINT RightUpLeg
	{
		OFFSET -0.086512 0.000000 -0.025273
		CHANNELS 3 Xrotation Yrotation Zrotation
		JOINT RightLeg
		{
			OFFSET 0.000000 0.000000 -0.433119
			CHANNELS 3 Xrotation Yrotation Zrotation
			JOINT RightFoot
			{
				OFFSET 0.000000 0.000000 -0.404688
				CHANNELS 3 Xrotation Yrotation Zrotation
				JOINT RightToeBase
				{
					OFFSET 0.000000 -0.126496 -0.046041
					CHANNELS 3 Xrotation Yrotation Zrotation
					End Site
					{
						OFFSET 0.000000 0.000000 0.000000
					}
				}
			}
		}
	}
	JOINT LeftUpLeg
	{
		OFFSET 0.086512 0.000000 -0.025273
		CHANNELS 3 Xrotation Yrotation Zrotation
		JOINT LeftLeg
		{
			OFFSET 0.000000 0.000000 -0.433119
			CHANNELS 3 Xrotation Yrotation Zrotation
			JOINT LeftFoot
			{
				OFFSET 0.000000 0.000000 -0.404688
				CHANNELS 3 Xrotation Yrotation Zrotation
				JOINT LeftToeBase
				{
					OFFSET 0.000000 -0.126496 -0.046041
					CHANNELS 3 Xrotation Yrotation Zrotation
					End Site
					{
						OFFSET 0.000000 0.000000 0.000000
					}
				}
			}
		}
	}
}
MOTION
Frames: 8
Frame Time: 0.033333
0.080848 -2.212081 0.866899 0.917300 3.208600 -179.130200 2.741000 2.983200 -2.230300 1.979000 -0.097800 -0.173600 1.374800 -1.469800 -0.904900 0.948000 -0.341200 0.212400 3.148400 0.317400 4.932500 -4.756800 5.014400 7.063400 9.221000 -3.772200 -1.288200 57.617600 -37.359900 61.145600 0.000000 0.000000 23.080300 -6.036600 14.439400 -1.043000 0.000000 0.000000 0.000000 0.000000 0.000000 0.000000 12.902900 2.687600 -3.765800 44.251700 30.435300 -57.688800 0.000000 0.000000 -36.131200 -15.480900 -17.572900 -2.789200 0.000000 0.000000 0.000000 0.000000 0.000000 0.000000 -21.599500 1.109600 -15.866000 15.072100 0.000000 0.000000 -4.581600 0.657400 -21.103400 -4.709500 0.000000 0.000000 10.386100 4.998100 14.004100 16.978000 0.000000 0.000000 -22.919000 12.488800 25.927100 -11.403100 0.000000 0.000000 
0.083205 -2.177550 0.868713 1.097500 3.098500 -178.937600 2.632100 2.566600 -1.983900 1.838700 -0.033200 -0.195700 1.546500 -1.640000 -1.030600 0.963800 -0.353900 0.226900 3.265700 0.363500 4.834600 -4.580000 5.004700 6.999600 9.169800 -4.320700 -1.434000 57.483200 -37.769500 61.035800 0.000000 0.000000 21.635700 -6.188100 14.294000 -1.064600 0.000000 0.000000 0.000000 0.000000 0.000000 0.000000 13.076900 2.870000 -3.672800 44.840500 30.393100 -58.077300 0.000000 0.000000 -35.929700 -15.348300 -17.616300 -2.842200 0.000000 0.000000 0.000000 0.000000 0.000000 0.000000 -20.739900 0.871600 -13.543800 18.039900 0.000000 0.000000 -5.017700 3.332700 -23.464600 -0.545700 0.000000 0.000000 7.970800 3.656200 13.432600 26.546100 0.000000 0.000000 -19.807500 14.856400 27.452100 -18.070100 0.000000 0.000000 
0.087018 -2.143897 0.872500 1.119600 2.542700 -178.534300 2.467600 1.760500 -1.578700 1.716100 0.002500 -0.212700 1.586300 -1.744700 -1.185000 0.928600 -0.332900 0.211300 3.449600 0.281200 4.568000 -4.259200 4.869800 6.744300 9.162200 -4.704200 -1.508100 57.345100 -38.483600 60.916900 0.000000 0.000000 20.798700 -6.199000 14.254400 -1.147600 0.000000 0.000000 0.000000 0.000000 0.000000 0.000000 13.273100 2.738200 -3.615000 45.978100 30.059100 -58.946700 0.000000 0.000000 -35.241900 -15.231800 -17.078200 -2.602200 0.000000 0.000000 0.000000 0.000000 0.000000 0.000000 -18.960000 0.118100 -13.330100 18.900200 0.000000 0.000000 -7.053400 4.601600 -24.200300 0.840700 0.000000 0.000000 3.688100 1.553900 14.294800 37.558400 0.000000 0.000000 -12.573900 13.670700 30.138400 -22.856000 0.000000 0.000000 
0.090792 -2.111444 0.876955 1.063000 1.834400 -178.010600 2.323400 0.872400 -1.083100 1.625000 -0.051500 -0.219300 1.542300 -1.823300 -1.270800 0.886900 -0.290200 0.183800 3.492000 0.174100 4.187700 -3.911800 4.674700 6.235400 9.154700 -4.870400 -1.493600 57.283000 -38.776000 60.595300 0.000000 0.000000 21.030300 -6.157400 14.255900 -1.176200 0.000000 0.000000 0.000000 0.000000 0.000000 0.000000 13.437000 2.625300 -3.505300 47.308700 29.237100 -60.022900 0.000000 0.000000 -34.409500 -14.826100 -16.129600 -2.327000 0.000000 0.000000 0.000000 0.000000 0.000000 0.000000 -16.360700 -0.719300 -14.825900 18.185300 0.000000 0.000000 -9.271300 4.531300 -23.383600 -0.135600 0.000000 0.000000 -1.560400 -0.379500 14.486200 47.212000 0.000000 0.000000 -5.953200 9.402700 34.644500 -22.072100 0.000000 0.000000 
0.093045 -2.080273 0.881784 1.004300 1.548400 -177.661800 2.229200 0.375700 -0.610600 1.569700 -0.111300 -0.209100 1.586200 -1.875000 -1.084300 0.879000 -0.283700 0.227400 3.297800 0.132300 3.766900 -3.714100 4.517200 5.520800 9.133700 -4.901300 -1.415900 57.037900 -38.276000 59.941900 0.000000 0.000000 22.114300 -6.128400 14.260000 -1.098800 0.000000 0.000000 0.000000 0.000000 0.000000 0.000000 13.594700 2.744000 -3.372200 48.427200 28.328500 -60.966600 0.000000 0.000000 -33.721800 -14.089700 -15.410400 -2.347300 0.000000 0.000000 0.000000 0.000000 0.000000 0.000000 -13.418100 -1.119600 -16.694100 16.720100 0.000000 0.000000 -10.686500 4.008400 -22.025700 -0.846600 0.000000 0.000000 -6.861700 -1.267000 13.941700 53.896800 0.000000 0.000000 -5.239700 5.445200 37.482400 -18.805800 0.000000 0.000000 
0.094059 -2.049988 0.886897 0.978200 1.727100 -177.813000 2.183500 0.214300 -0.195600 1.545600 -0.117800 -0.172000 1.727900 -1.759500 -0.529000 0.898000 -0.312600 0.339100 3.092500 0.142000 3.433900 -3.699500 4.414400 4.803700 9.088800 -4.842700 -1.253200 56.422400 -37.478400 59.150700 0.000000 0.000000 23.395200 -5.896700 14.374000 -1.038400 0.000000 0.000000 0.000000 0.000000 0.000000 0.000000 13.836700 2.946900 -3.172700 49.245400 27.895700 -61.606800 0.000000 0.000000 -33.267000 -13.596800 -15.224100 -2.573200 0.000000 0.000000 0.000000 0.000000 0.000000 0.000000 -10.358600 -1.201900 -17.875100 14.698800 0.000000 0.000000 -11.667800 3.603000 -20.823000 -0.501100 0.000000 0.000000 -11.544700 -1.322600 13.622600 56.762100 0.000000 0.000000 -9.429200 3.906600 36.662000 -15.509800 0.000000 0.000000 
0.094577 -2.019696 0.891512 1.005000 2.122800 -178.428000 2.152900 0.123800 0.210700 1.568700 -0.046800 -0.124800 1.806600 -1.472400 0.174100 0.909300 -0.304500 0.442100 3.167200 0.210200 3.300000 -3.764800 4.335300 4.286900 8.996900 -4.583600 -0.980700 55.520700 -37.270000 58.503000 0.000000 0.000000 24.496800 -5.306600 14.692800 -1.127800 0.000000 0.000000 0.000000 0.000000 0.000000 0.000000 14.238100 3.036100 -2.768000 49.927800 27.987100 -61.996800 0.000000 0.000000 -32.960200 -13.754100 -15.207700 -2.644200 0.000000 0.000000 0.000000 0.000000 0.000000 0.000000 -7.086600 -1.166900 -18.854900 12.186200 0.000000 0.000000 -12.605500 2.815900 -19.266600 -0.391700 0.000000 0.000000 -15.225100 -0.934900 13.803100 55.420300 0.000000 0.000000 -13.180100 4.924200 34.877000 -13.308100 0.000000 0.000000 
0.095032 -1.989069 0.894278 0.987700 2.311400 -179.135400 2.080600 -0.132900 0.649600 1.626400 -0.056600 -0.076200 1.686200 -1.142700 0.759000 0.901700 -0.227400 0.468600 3.496700 0.378500 3.320300 -3.833400 4.288600 3.980100 8.846400 -4.084800 -0.688700 54.402800 -38.031000 57.879900 0.000000 0.000000 25.674800 -4.724300 15.110400 -1.313300 0.000000 0.000000 0.000000 0.000000 0.000000 0.000000 14.762500 2.964100 -2.188200 50.621700 28.294600 -62.287900 0.000000 0.000000 -32.697800 -14.165200 -14.998600 -2.418500 0.000000 0.000000 0.000000 0.000000 0.000000 0.000000 -3.864900 -1.293200 -20.574200 9.783700 0.000000 0.000000 -13.365000 1.520400 -17.014100 -0.943800 0.000000 0.000000 -17.788700 -0.420200 14.117500 50.084100 0.000000 0.000000 -14.843100 5.858300 34.311800 -12.608200 0.000000 0.000000 
